<svg xmlns:inkscape="http://www.inkscape.org/namespaces/inkscape" xmlns:sodipodi="http://sodipodi.sourceforge.net/DTD/sodipodi-0.dtd" xmlns="http://www.w3.org/2000/svg" xmlns:svg="http://www.w3.org/2000/svg" viewBox="0 0 12.69922 15.874012500000001" version="1.1" x="0px" y="0px"><g transform="translate(-66.64192,-127.0487)"><path style="color:#000000;" d="m 72.982422,128.10547 c -2.913444,0 -5.283203,2.37173 -5.283203,5.28515 0,2.91345 2.369761,5.28321 5.283203,5.28321 a 0.39687499,0.39687499 0 0 0 0.398437,-0.39649 0.39687499,0.39687499 0 0 0 -0.398437,-0.39843 c -2.484472,0 -4.490235,-2.00381 -4.490235,-4.48829 0,-2.48444 2.005765,-4.49023 4.490235,-4.49023 2.484459,0 4.490234,2.00579 4.490234,4.49023 a 0.39687499,0.39687499 0 0 0 0.396485,0.39649 0.39687499,0.39687499 0 0 0 0.398437,-0.39649 c 0,-2.91342 -2.371721,-5.28515 -5.285156,-5.28515 z" fill="#000000" stroke-linecap="round" stroke-linejoin="round"/><path style="color:#000000;" d="m 76.158203,129.6543 -6.912109,6.91015 a 0.39687499,0.39687499 0 0 0 0,0.5625 0.39687499,0.39687499 0 0 0 0.5625,0 l 6.910156,-6.91211 a 0.39687499,0.39687499 0 0 0 0,-0.56054 0.39687499,0.39687499 0 0 0 -0.560547,0 z" fill="#000000" stroke-linecap="round" stroke-linejoin="round"/><path style="color:#000000;" d="M 75.902337 135.20893 A 0.3968755 0.3968755 0 0 0 75.503911 135.60528 L 75.503911 136.3086 A 0.3968755 0.3968755 0 0 0 75.642921 136.60884 L 76.056849 137.02328 A 0.3968755 0.3968755 0 0 0 76.617022 137.02328 A 0.3968755 0.3968755 0 0 0 76.617022 136.46311 L 76.298695 136.14479 L 76.298695 135.60528 A 0.3968755 0.3968755 0 0 0 75.902337 135.20893 z " fill="#000000" stroke-linecap="round" stroke-linejoin="round"/><path style="color:#000000;" d="m 75.902344,133.92773 c -1.310429,0 -2.382814,1.07043 -2.382813,2.38086 5e-6,1.31043 1.072388,2.38086 2.382813,2.38086 1.310424,0 2.380854,-1.07043 2.380859,-2.38086 2e-6,-1.31043 -1.07043,-2.38086 -2.380859,-2.38086 z m 0,0.79297 c 0.881454,0 1.585938,0.70644 1.585937,1.58789 -3e-6,0.88145 -0.704486,1.58789 -1.585937,1.58789 -0.881451,0 -1.587887,-0.70644 -1.587891,-1.58789 -10e-7,-0.88145 0.706437,-1.58789 1.587891,-1.58789 z" fill="white" stroke-linecap="round" stroke-linejoin="round"/></g><text x="0" y="27.69921" fill="#000000" font-size="5px" font-weight="bold" font-family="'Helvetica Neue', Helvetica, Arial-Unicode, Arial, Sans-serif">Created by Meko</text><text x="0" y="32.69921" fill="none" font-size="5px" font-weight="bold" font-family="'Helvetica Neue', Helvetica, Arial-Unicode, Arial, Sans-serif">from the Noun Project</text></svg>